<svg width="24" height="18" viewBox="0 0 24 18" fill="none" xmlns="http://www.w3.org/2000/svg">
<path fill-rule="evenodd" clip-rule="evenodd" d="M3.55 0.861542C2.80739 0.861542 2.0952 1.15654 1.5701 1.68164C1.045 2.20674 0.75 2.91894 0.75 3.66154V9.26154C0.75 10.0041 1.045 10.7163 1.5701 11.2414C2.0952 11.7665 2.80739 12.0615 3.55 12.0615V3.66154H17.55C17.55 2.91894 17.255 2.20674 16.7299 1.68164C16.2048 1.15654 15.4926 0.861542 14.75 0.861542H3.55ZM6.35 9.26154C6.35 8.51894 6.645 7.80675 7.1701 7.28164C7.6952 6.75654 8.40739 6.46154 9.15 6.46154H20.35C21.0926 6.46154 21.8048 6.75654 22.3299 7.28164C22.855 7.80675 23.15 8.51894 23.15 9.26154V14.8615C23.15 15.6041 22.855 16.3163 22.3299 16.8414C21.8048 17.3665 21.0926 17.6615 20.35 17.6615H9.15C8.40739 17.6615 7.6952 17.3665 7.1701 16.8414C6.645 16.3163 6.35 15.6041 6.35 14.8615V9.26154ZM14.75 14.8615C15.4926 14.8615 16.2048 14.5665 16.7299 14.0414C17.255 13.5163 17.55 12.8041 17.55 12.0615C17.55 11.3189 17.255 10.6067 16.7299 10.0816C16.2048 9.55654 15.4926 9.26154 14.75 9.26154C14.0074 9.26154 13.2952 9.55654 12.7701 10.0816C12.245 10.6067 11.95 11.3189 11.95 12.0615C11.95 12.8041 12.245 13.5163 12.7701 14.0414C13.2952 14.5665 14.0074 14.8615 14.75 14.8615Z" fill="#00BB67"/>
</svg>
