<svg width="22" height="22" viewBox="0 0 22 22" fill="none" xmlns="http://www.w3.org/2000/svg">
<path d="M1 9.05556V19.8889C1 20.1836 1.11706 20.4662 1.32544 20.6746C1.53381 20.8829 1.81643 21 2.11111 21H7.03222C7.32691 21 7.60952 20.8829 7.8179 20.6746C8.02627 20.4662 8.14333 20.1836 8.14333 19.8889V12.4289H13.8567V19.8889C13.8567 20.1836 13.9737 20.4662 14.1821 20.6746C14.3905 20.8829 14.6731 21 14.9678 21H19.8889C20.1836 21 20.4662 20.8829 20.6746 20.6746C20.8829 20.4662 21 20.1836 21 19.8889V9.05556C21 8.88306 20.9598 8.71294 20.8827 8.55865C20.8056 8.40437 20.6936 8.27016 20.5556 8.16667L11 1L1.44444 8.16667C1.30645 8.27016 1.19444 8.40437 1.1173 8.55865C1.04016 8.71294 1 8.88306 1 9.05556Z" stroke="#00BB67" stroke-width="1.5" stroke-linecap="round" stroke-linejoin="round"/>
</svg>
