<svg width="23" height="23" viewBox="0 0 23 23" fill="none" xmlns="http://www.w3.org/2000/svg">
<path d="M17.054 11.8462H13.4926C13.1447 11.8462 12.9708 11.8462 12.8271 11.88C12.3588 11.9904 11.9931 12.356 11.8827 12.8242C11.8489 12.9679 11.8489 13.1417 11.8489 13.4895V17.05C11.8489 19.924 14.1793 22.2539 17.054 22.2539C19.9286 22.2539 22.259 19.924 22.259 17.05C22.259 14.176 19.9286 11.8462 17.054 11.8462Z" fill="#0078C2"/>
<path d="M8.12501 11.8479H2.03125C1.32025 11.8479 0.964745 11.8479 0.693177 11.9862C0.454299 12.1079 0.260085 12.3021 0.138371 12.5409C0 12.8124 0 13.1678 0 13.8787V19.971C0 20.6818 0 21.0372 0.138371 21.3087C0.260085 21.5476 0.454299 21.7417 0.693177 21.8634C0.964745 22.0017 1.32025 22.0017 2.03125 22.0017H8.12501C8.83601 22.0017 9.19151 22.0017 9.46308 21.8634C9.70196 21.7417 9.89617 21.5476 10.0179 21.3087C10.1563 21.0372 10.1563 20.6818 10.1563 19.971V13.8787C10.1563 13.1678 10.1563 12.8124 10.0179 12.5409C9.89617 12.3021 9.70196 12.1079 9.46308 11.9862C9.19151 11.8479 8.83601 11.8479 8.12501 11.8479Z" fill="#00B0F4"/>
<path d="M19.9758 0H13.8821C13.1711 0 12.8156 0 12.544 0.138338C12.3051 0.260023 12.1109 0.454191 11.9892 0.693012C11.8508 0.964515 11.8508 1.31993 11.8508 2.03077V8.12124C11.8508 8.83208 11.8508 9.18749 11.9892 9.459C12.1109 9.69782 12.3051 9.89198 12.544 10.0137C12.8156 10.152 13.1711 10.152 13.8821 10.152H19.9758C20.6868 10.152 21.0423 10.152 21.3139 10.0137C21.5528 9.89198 21.747 9.69782 21.8687 9.459C22.0071 9.18749 22.0071 8.83208 22.0071 8.12124V2.03077C22.0071 1.31993 22.0071 0.964515 21.8687 0.693012C21.747 0.454191 21.5528 0.260023 21.3139 0.138338C21.0423 0 20.6868 0 19.9758 0Z" fill="#0DB25A"/>
<path d="M2.03125 10.1538H8.55264C8.86314 10.1538 9.01839 10.1538 9.14725 10.1268C9.64047 10.0234 10.0258 9.63818 10.1292 9.14508C10.1563 9.01625 10.1563 8.86103 10.1563 8.55061C10.1563 6.89499 10.1563 6.06718 10.0122 5.38008C9.4606 2.75022 7.40539 0.695494 4.7749 0.144071C4.08763 0 3.25963 0 1.60362 0C1.29312 0 1.13787 0 1.009 0.0270132C0.515789 0.130405 0.130436 0.515666 0.0270197 1.00876C0 1.1376 0 1.29281 0 1.60324V8.12308C0 8.83391 0 9.18933 0.138371 9.46083C0.260085 9.69965 0.454299 9.89382 0.693177 10.0155C0.964745 10.1538 1.32025 10.1538 2.03125 10.1538Z" fill="#FFB306"/>
</svg>
