<svg width="22" height="22" viewBox="0 0 22 22" fill="none" xmlns="http://www.w3.org/2000/svg">
<path d="M1 15.4444V6.55556C1 5.08213 1.58532 3.66905 2.62718 2.62718C3.66905 1.58532 5.08213 1 6.55556 1H15.4444C16.9179 1 18.3309 1.58532 19.3728 2.62718C20.4147 3.66905 21 5.08213 21 6.55556V15.4444C21 16.9179 20.4147 18.3309 19.3728 19.3728C18.3309 20.4147 16.9179 21 15.4444 21H6.55556C5.08213 21 3.66905 20.4147 2.62718 19.3728C1.58532 18.3309 1 16.9179 1 15.4444Z" stroke="#586A74" stroke-width="1.5"/>
<path d="M16 13.7778C16 13.7778 14.3333 16.0001 11 16.0001C7.66667 16.0001 6 13.7778 6 13.7778" stroke="#586A74" stroke-width="1.5" stroke-linecap="round" stroke-linejoin="round"/>
<path d="M7.11113 8.77786C6.96379 8.77786 6.82248 8.71933 6.71829 8.61514C6.6141 8.51095 6.55557 8.36965 6.55557 8.2223C6.55557 8.07496 6.6141 7.93365 6.71829 7.82947C6.82248 7.72528 6.96379 7.66675 7.11113 7.66675C7.25847 7.66675 7.39978 7.72528 7.50397 7.82947C7.60815 7.93365 7.66668 8.07496 7.66668 8.2223C7.66668 8.36965 7.60815 8.51095 7.50397 8.61514C7.39978 8.71933 7.25847 8.77786 7.11113 8.77786ZM14.8889 8.77786C14.7416 8.77786 14.6003 8.71933 14.4961 8.61514C14.3919 8.51095 14.3333 8.36965 14.3333 8.2223C14.3333 8.07496 14.3919 7.93365 14.4961 7.82947C14.6003 7.72528 14.7416 7.66675 14.8889 7.66675C15.0362 7.66675 15.1776 7.72528 15.2817 7.82947C15.3859 7.93365 15.4445 8.07496 15.4445 8.2223C15.4445 8.36965 15.3859 8.51095 15.2817 8.61514C15.1776 8.71933 15.0362 8.77786 14.8889 8.77786Z" fill="#586A74" stroke="#586A74" stroke-width="1.5" stroke-linecap="round" stroke-linejoin="round"/>
</svg>
