<svg width="22" height="22" viewBox="0 0 22 22" fill="none" xmlns="http://www.w3.org/2000/svg">
<path d="M1 15.4444V6.55556C1 5.08213 1.58532 3.66905 2.62718 2.62718C3.66905 1.58532 5.08213 1 6.55556 1H15.4444C16.9179 1 18.3309 1.58532 19.3728 2.62718C20.4147 3.66905 21 5.08213 21 6.55556V15.4444C21 16.9179 20.4147 18.3309 19.3728 19.3728C18.3309 20.4147 16.9179 21 15.4444 21H6.55556C5.08213 21 3.66905 20.4147 2.62718 19.3728C1.58532 18.3309 1 16.9179 1 15.4444Z" stroke="#00BB67" stroke-width="1.5"/>
<path d="M16 13.7773C16 13.7773 14.3333 15.9996 11 15.9996C7.66667 15.9996 6 13.7773 6 13.7773" stroke="#00BB67" stroke-width="1.5" stroke-linecap="round" stroke-linejoin="round"/>
<path d="M7.11122 8.7781C6.96388 8.7781 6.82257 8.71957 6.71838 8.61539C6.6142 8.5112 6.55566 8.36989 6.55566 8.22255C6.55566 8.07521 6.6142 7.9339 6.71838 7.82971C6.82257 7.72552 6.96388 7.66699 7.11122 7.66699C7.25856 7.66699 7.39987 7.72552 7.50406 7.82971C7.60824 7.9339 7.66678 8.07521 7.66678 8.22255C7.66678 8.36989 7.60824 8.5112 7.50406 8.61539C7.39987 8.71957 7.25856 8.7781 7.11122 8.7781ZM14.889 8.7781C14.7417 8.7781 14.6003 8.71957 14.4962 8.61539C14.392 8.5112 14.3334 8.36989 14.3334 8.22255C14.3334 8.07521 14.392 7.9339 14.4962 7.82971C14.6003 7.72552 14.7417 7.66699 14.889 7.66699C15.0363 7.66699 15.1776 7.72552 15.2818 7.82971C15.386 7.9339 15.4446 8.07521 15.4446 8.22255C15.4446 8.36989 15.386 8.5112 15.2818 8.61539C15.1776 8.71957 15.0363 8.7781 14.889 8.7781Z" fill="#00BB67" stroke="#00BB67" stroke-width="1.5" stroke-linecap="round" stroke-linejoin="round"/>
</svg>
