<svg width="11" height="12" viewBox="0 0 11 12" fill="none" xmlns="http://www.w3.org/2000/svg">
<path d="M3.45394 0C3.01822 0 2.63266 0.282126 2.50082 0.697421L0.913517 5.69742C0.708813 6.34224 1.19011 7 1.86664 7H2.96435C3.10206 7 3.19857 7.13593 3.15317 7.26594L1.76939 11.2286C1.63769 11.6057 1.91765 12 2.31712 12C2.43615 12 2.55231 11.9634 2.64982 11.8951L9.9011 6.81923C10.7021 6.25855 10.3053 5 9.32763 5H7.44116C7.2801 5 7.1851 4.81935 7.27637 4.68666L9.42237 1.56671C9.87873 0.903231 9.40373 0 8.59845 0H3.45394Z" fill="white"/>
</svg>
