<svg width="78" height="142" viewBox="0 0 78 142" fill="none" xmlns="http://www.w3.org/2000/svg">
<path d="M0.75 98.4057C0.75 97.5536 1.23133 96.7746 1.99339 96.3934L37.9934 78.3849C38.627 78.068 39.373 78.068 40.0066 78.3849L76.0066 96.3934C76.7687 96.7746 77.25 97.5536 77.25 98.4057V138.043C77.25 139.285 76.2426 140.293 75 140.293H3C1.75736 140.293 0.75 139.285 0.75 138.043V98.4057Z" fill="#F2FBF6" stroke="#00BB67" stroke-width="1.5" stroke-linejoin="round"/>
<path d="M38.0509 99.57C56.9866 94.9795 80.5176 84.498 74.9454 66.5428C70.4454 52.0428 50.5154 52.7138 42.5 55.5428C34.4846 58.3717 34.9815 70.048 47.5 66.5428C60 63.0428 64.6323 49.0438 59.9332 41.485C55.2342 33.9263 47.5 30.635 47.5 30.635" stroke="#586A74" stroke-width="1.5" stroke-linecap="round" stroke-dasharray="4 4"/>
<path d="M24.5196 20.3699C27.5397 16.7709 35.4277 18.3923 39.0594 22.155C43.0208 26.2593 43.5377 27.6588 40.6026 33.4918C37.6745 39.3107 35.6588 30.1402 35.9479 26.0134C30.0364 28.2988 20.7445 24.8687 24.5196 20.3699Z" fill="#F2FBF6"/>
<path d="M38.1473 7.86915C34.4435 10.7599 35.7847 18.7003 39.4164 22.463C43.3778 26.5673 44.7582 27.1334 50.6914 24.4067C56.6104 21.6864 47.517 19.3473 43.3825 19.49C45.8758 13.6632 42.7769 4.25571 38.1473 7.86915Z" fill="#F2FBF6"/>
<path d="M18.7713 13.6181C18.3573 13.6071 18.0127 13.9338 18.0016 14.3478C17.9906 14.7619 18.3173 15.1065 18.7314 15.1176L18.7713 13.6181ZM34.6634 1.13214C34.7061 0.720132 34.4067 0.351513 33.9947 0.308805C33.5827 0.266095 33.2141 0.565469 33.1714 0.977475L34.6634 1.13214ZM39.0594 22.155L38.5198 22.6759L39.0594 22.155ZM24.5196 20.3699L23.9451 19.8878L24.5196 20.3699ZM35.9479 26.0134L36.696 26.0658C36.7139 25.8098 36.5997 25.5624 36.3933 25.41C36.1868 25.2576 35.9168 25.2213 35.6774 25.3139L35.9479 26.0134ZM40.6026 33.4918L39.9326 33.1546L40.6026 33.4918ZM39.4164 22.463L38.8768 22.9839L39.4164 22.463ZM38.1473 7.86915L38.6087 8.46039L38.1473 7.86915ZM43.3825 19.49L42.693 19.195C42.5921 19.4309 42.6187 19.7021 42.7637 19.9138C42.9088 20.1256 43.1519 20.2485 43.4084 20.2396L43.3825 19.49ZM50.6914 24.4067L50.3782 23.7252L50.6914 24.4067ZM39.1473 21.1752C39.0076 20.9954 38.7548 20.7596 38.4494 20.5055C38.1281 20.238 37.7037 19.9136 37.1846 19.5534C36.146 18.8328 34.7154 17.9601 32.9508 17.1078C29.4231 15.4041 24.5391 13.7718 18.7713 13.6181L18.7314 15.1176C24.2401 15.2644 28.915 16.8244 32.2985 18.4586C33.9895 19.2753 35.3526 20.1079 36.3295 20.7858C36.8182 21.1248 37.207 21.4229 37.4898 21.6583C37.7886 21.9071 37.9309 22.0545 37.9627 22.0955L39.1473 21.1752ZM39.0906 21.1055C39.0541 21.0686 38.9263 20.9085 38.7184 20.5799C38.5216 20.269 38.2765 19.8448 38.0036 19.3164C37.458 18.2598 36.809 16.8004 36.2183 15.0178C35.0364 11.4511 34.0952 6.61346 34.6634 1.13214L33.1714 0.977475C32.5765 6.71654 33.5621 11.7709 34.7944 15.4896C35.4108 17.3497 36.0908 18.8814 36.6708 20.0046C36.9606 20.566 37.2274 21.0288 37.4509 21.3821C37.6634 21.7178 37.8645 21.999 38.0246 22.1608L39.0906 21.1055ZM39.599 21.6342C37.6492 19.614 34.6084 18.2062 31.6728 17.7603C28.7659 17.3188 25.7042 17.7915 23.9451 19.8878L25.0941 20.852C26.3551 19.3493 28.7474 18.8332 31.4475 19.2433C34.1188 19.649 36.8379 20.9333 38.5198 22.6759L39.599 21.6342ZM23.9451 19.8878C22.8554 21.1864 22.6199 22.5529 23.2028 23.7906C23.747 24.9459 24.9316 25.8233 26.3004 26.4227C29.0505 27.627 33.0574 27.935 36.2183 26.7129L35.6774 25.3139C32.9269 26.3772 29.3321 26.1128 26.9021 25.0487C25.6809 24.5139 24.8809 23.8332 24.5599 23.1515C24.2776 22.5521 24.2963 21.8028 25.0941 20.852L23.9451 19.8878ZM35.1997 25.961C35.0482 28.124 35.492 31.5632 36.3726 33.7612C36.5952 34.3168 36.8603 34.8312 37.1771 35.2343C37.4872 35.6288 37.9118 35.9981 38.4681 36.0969C39.0596 36.202 39.6007 35.9694 40.0488 35.5705C40.4845 35.1825 40.8872 34.5946 41.2725 33.8289L39.9326 33.1546C39.5859 33.8437 39.2851 34.2421 39.0513 34.4502C38.8298 34.6475 38.7353 34.6209 38.7305 34.62C38.6907 34.613 38.5585 34.5644 38.3565 34.3074C38.1613 34.059 37.9593 33.6883 37.765 33.2033C36.978 31.2391 36.5585 28.0296 36.696 26.0658L35.1997 25.961ZM41.2725 33.8289C42.7332 30.926 43.4583 28.9147 43.1576 27.0554C42.8569 25.1965 41.5547 23.6603 39.599 21.6342L38.5198 22.6759C40.5256 24.754 41.4625 25.9697 41.6768 27.2949C41.8911 28.6196 41.407 30.2246 39.9326 33.1546L41.2725 33.8289ZM39.956 21.9422C38.2742 20.1996 37.0869 17.4368 36.776 14.7528C36.4618 12.0399 37.0623 9.66739 38.6087 8.46039L37.6858 7.27792C35.5285 8.96167 34.9477 12.0048 35.286 14.9254C35.6277 17.875 36.9269 20.9637 38.8768 22.9839L39.956 21.9422ZM38.6087 8.46039C39.5872 7.69671 40.3367 7.70454 40.9256 8.00787C41.5955 8.35288 42.2476 9.17648 42.7388 10.4158C43.7162 12.8819 43.8531 16.4839 42.693 19.195L44.0721 19.7851C45.4053 16.6694 45.2394 12.6541 44.1332 9.86316C43.5827 8.47397 42.7477 7.25903 41.6124 6.67433C40.3962 6.04794 39.0222 6.23487 37.6858 7.27792L38.6087 8.46039ZM43.4084 20.2396C45.3759 20.1717 48.5685 20.7046 50.5036 21.5606C50.9814 21.772 51.3448 21.987 51.5861 22.1909C51.8357 22.4018 51.8796 22.5357 51.8852 22.5757C51.8859 22.5805 51.9091 22.6759 51.7042 22.8903C51.4879 23.1165 51.0791 23.4031 50.3782 23.7252L51.0046 25.0881C51.7834 24.7302 52.3853 24.3486 52.7884 23.9268C53.203 23.4932 53.4546 22.9606 53.3705 22.3658C53.2914 21.8063 52.9374 21.3689 52.5541 21.0451C52.1625 20.7142 51.6578 20.431 51.1104 20.1889C48.945 19.231 45.5237 18.6657 43.3567 18.7405L43.4084 20.2396ZM50.3782 23.7252C47.3977 25.0949 45.7767 25.5218 44.4604 25.2608C43.1436 24.9997 41.9618 24.0203 39.956 21.9422L38.8768 22.9839C40.8324 25.01 42.3215 26.3658 44.1686 26.7321C46.0161 27.0985 48.0518 26.4451 51.0046 25.0881L50.3782 23.7252Z" fill="#00BB67"/>
</svg>
